# xmcd
#
# Track frame offsets: 
#        150
#        14012
#        25405
#        41277
#        57402
#        69617
#        85355
#        95752
#        105577
#        117157
#        126095
#        141212
#        148830
#        159385
#        170030
#        185010
#        197097
#        207177
#        220762
#        242012
#        258650
#        276220
#
# Disc length: 3922 seconds
#
# Revision: 2
# Processed by: cddbd v1.5.2PL0 Copyright (c) Steve Scherf et al.
# Submitted via: ExactAudioCopy v1.0b1
#
DISCID=530f5016
DTITLE=Gene Parsons - The Kindling Collection
DYEAR=1994
DGENRE=Country
TTITLE0=Gunga Din
TTITLE1=Nashville West
TTITLE2=There Must Be Someone
TTITLE3=Yesterday's Train
TTITLE4=Bristol Steam Convention Blues
TTITLE5=Get Down Your Line
TTITLE6=B.B. Class Road
TTITLE7=Monument
TTITLE8=Long Way Back
TTITLE9=Do Not Disturb
TTITLE10=Willin'
TTITLE11=On The Spot
TTITLE12=Take A City Bride
TTITLE13=Sonic Bummer
TTITLE14=I Must Be A Tree
TTITLE15=Drunkard's Dream
TTITLE16=Banjo Dog
TTITLE17=Back Again
TTITLE18=Wind And Rain
TTITLE19=Sweet Desert Childhood
TTITLE20=Out Of Control
TTITLE21=Northbound Bus
EXTD=
EXTT0=
EXTT1=
EXTT2=
EXTT3=
EXTT4=
EXTT5=
EXTT6=
EXTT7=
EXTT8=
EXTT9=
EXTT10=
EXTT11=
EXTT12=
EXTT13=
EXTT14=
EXTT15=
EXTT16=
EXTT17=
EXTT18=
EXTT19=
EXTT20=
EXTT21=
PLAYORDER=
